<svg id="Layer_1" data-name="Layer 1" xmlns="http://www.w3.org/2000/svg" viewBox="0 0 131 131">
    <defs>
        <style>
            .cls-1{fill:#000;}
        </style>
    </defs>
    <g id="logo" transform="translate(-69 -69) scale(0.14)">
        <path class="cls-1"
              d="M770.43,889.85C743.12,751.42,785.69,606,884.49,503.48A475.66,475.66,0,0,1,960,497.32c114.33,0,221.7,41,306.31,115.94a516.25,516.25,0,0,0-53.82-3c-5.62,0-11.24,0-17.13.27-125.85,4.28-242.86,57-329.61,148.6l-1.61,1.61Z"/>
        <path class="cls-1"
              d="M804.43,1089.33C671.09,1043.81,566.13,934,526.77,797.47a461.72,461.72,0,0,1,286-276.05,481,481,0,0,0-37.75,60c-59.17,111.12-72,239.11-36.15,359.87l.54,1.34Z"/>
        <path class="cls-1"
              d="M707.51,1266.85a444.53,444.53,0,0,1-104.7-12.59A463.86,463.86,0,0,1,497.32,960a456.48,456.48,0,0,1,9.1-91.84,467.43,467.43,0,0,0,33.2,62.65c66.68,106.84,171.1,181.81,293.46,211.26l2.15.54L994,1159.21c-75,65.87-170.29,103.62-271,107.37-5.09.27-10.45.27-15.53.27Z"/>
        <path class="cls-1"
              d="M1413.58,1051.84a467.43,467.43,0,0,0-33.2-62.65c-66.68-106.84-171.1-181.81-293.46-211.26l-1.88-.54-1.07-.27-158-16.6c79-69.35,179.93-107.37,286.49-107.37a433.62,433.62,0,0,1,105,12.85,465,465,0,0,1,105.23,294A476.93,476.93,0,0,1,1413.58,1051.84Z"/>
        <path class="cls-1"
              d="M1107,1398.85a465.07,465.07,0,0,0,37.75-60.24,474.32,474.32,0,0,0,36.15-359.87l-.54-2.14L1115.3,830.67a432.77,432.77,0,0,1,228.39,181A428.38,428.38,0,0,1,1393,1122,460.35,460.35,0,0,1,1107,1398.85Z"/>
        <path class="cls-1"
              d="M960,1422.68c-114.33,0-221.7-41-306.31-115.94a516.25,516.25,0,0,0,53.82,3c5.62,0,11.51,0,17.13-.27,125.85-4.28,242.86-57,329.61-148.34l1.61-1.6,94-129.33a435.92,435.92,0,0,1-113.53,386.37A485.71,485.71,0,0,1,960,1422.68Z"/>
        <path class="cls-1"
              d="M1062.31,819.15,889.17,800.92,786.59,941.77l70.82,159.08,173.14,18.23,102.32-140.85Zm-13,44.94,49.12,110.46-71.11,97.75L978.22,961.84ZM1022,845.79,951.9,942.26,833.46,929.8l70.09-96.46ZM878,1072.88l-49.37-111,120.74,12.7,49.37,111Z"/>
    </g>
</svg>